<svg xmlns="http://www.w3.org/2000/svg" width="430" height="430" style="width:100%;height:100%;transform:translate3d(0,0,0);content-visibility:visible" viewBox="0 0 430 430"><defs><clipPath id="m"><path d="M0 0h430v430H0z"/></clipPath><clipPath id="x"><path d="M0 0h430v430H0z"/></clipPath><clipPath id="v"><path d="M0 0h430v430H0z"/></clipPath><clipPath id="t"><path d="M0 0h430v430H0z"/></clipPath><clipPath id="r"><path d="M0 0h430v430H0z"/></clipPath><clipPath id="p"><path d="M0 0h430v430H0z"/></clipPath><clipPath id="n"><path d="M0 0h430v430H0z"/></clipPath><filter id="a" width="100%" height="100%" x="0%" y="0%" filterUnits="objectBoundingBox"><feComponentTransfer in="SourceGraphic"><feFuncA tableValues="1.0 0.0" type="table"/></feComponentTransfer></filter><filter id="c" width="100%" height="100%" x="0%" y="0%" filterUnits="objectBoundingBox"><feComponentTransfer in="SourceGraphic"><feFuncA tableValues="1.0 0.0" type="table"/></feComponentTransfer></filter><filter id="e" width="100%" height="100%" x="0%" y="0%" filterUnits="objectBoundingBox"><feComponentTransfer in="SourceGraphic"><feFuncA tableValues="1.0 0.0" type="table"/></feComponentTransfer></filter><filter id="g" width="100%" height="100%" x="0%" y="0%" filterUnits="objectBoundingBox"><feComponentTransfer in="SourceGraphic"><feFuncA tableValues="1.0 0.0" type="table"/></feComponentTransfer></filter><filter id="i" width="100%" height="100%" x="0%" y="0%" filterUnits="objectBoundingBox"><feComponentTransfer in="SourceGraphic"><feFuncA tableValues="1.0 0.0" type="table"/></feComponentTransfer></filter><filter id="k" width="100%" height="100%" x="0%" y="0%" filterUnits="objectBoundingBox"><feComponentTransfer in="SourceGraphic"><feFuncA tableValues="1.0 0.0" type="table"/></feComponentTransfer></filter><mask id="y" mask-type="alpha"><g filter="url(#a)"><path fill="#fff" d="M0 0h430v430H0z" opacity="0"/><use xmlns:ns1="http://www.w3.org/1999/xlink" ns1:href="#b"/></g></mask><mask id="w" mask-type="alpha"><g filter="url(#c)"><path fill="#fff" d="M0 0h430v430H0z" opacity="0"/><use xmlns:ns2="http://www.w3.org/1999/xlink" ns2:href="#d"/></g></mask><mask id="u" mask-type="alpha"><g filter="url(#e)"><path fill="#fff" d="M0 0h430v430H0z" opacity="0"/><use xmlns:ns3="http://www.w3.org/1999/xlink" ns3:href="#f"/></g></mask><mask id="s" mask-type="alpha"><g filter="url(#g)"><path fill="#fff" d="M0 0h430v430H0z" opacity="0"/><use xmlns:ns4="http://www.w3.org/1999/xlink" ns4:href="#h"/></g></mask><mask id="q" mask-type="alpha"><g filter="url(#i)"><path fill="#fff" d="M0 0h430v430H0z" opacity="0"/><use xmlns:ns5="http://www.w3.org/1999/xlink" ns5:href="#j"/></g></mask><mask id="o" mask-type="alpha"><g filter="url(#k)"><path fill="#fff" d="M0 0h430v430H0z" opacity="0"/><use xmlns:ns6="http://www.w3.org/1999/xlink" ns6:href="#l"/></g></mask><g id="b" style="display:none"><path class="secondary"/><path fill-opacity="0" stroke-linecap="round" stroke-linejoin="round" class="secondary"/></g><g id="d" style="display:none"><path class="secondary"/><path fill-opacity="0" stroke-linecap="round" stroke-linejoin="round" class="secondary"/></g><g id="f" style="display:block"><path fill="#4AB3FC" d="M133.35 201.72c-1.622-12.151-1.575-24.75.74-37.478 12.002-65.98 77.255-108.86 143.419-92.37 56.094 13.977 93.905 68.18 87.673 125.65-1.626 15.002-6.09 28.886-12.458 41.441C323.008 297.545 215.02 372.15 215.02 372.15s-71.597-94.966-81.67-170.43z" class="secondary"/><path fill-opacity="0" stroke="#4AB3FC" stroke-linecap="round" stroke-linejoin="round" stroke-width="3.5" d="M133.35 201.72c-1.622-12.151-1.575-24.75.74-37.478 12.002-65.98 77.255-108.86 143.419-92.37 56.094 13.977 93.905 68.18 87.673 125.65-1.626 15.002-6.09 28.886-12.458 41.441C323.008 297.545 215.02 372.15 215.02 372.15s-71.597-94.966-81.67-170.43z" class="secondary"/></g><g id="h" style="display:none"><path class="secondary"/><path fill-opacity="0" stroke-linecap="round" stroke-linejoin="round" class="secondary"/></g><g id="j" style="display:none"><path class="secondary"/><path fill-opacity="0" stroke-linecap="round" stroke-linejoin="round" class="secondary"/></g><g id="l" style="display:none"><path class="secondary"/><path fill-opacity="0" stroke-linecap="round" stroke-linejoin="round" class="secondary"/></g></defs><g clip-path="url(#m)"><g clip-path="url(#n)" style="display:none"><g style="display:none"><path class="secondary"/><path fill="none" class="primary"/></g><g mask="url(#o)" style="mix-blend-mode:multiply;display:none"><path class="secondary"/><path fill="none" class="primary"/></g></g><g clip-path="url(#p)" style="display:none"><g style="display:none"><path class="secondary"/><path fill="none" class="primary"/></g><g mask="url(#q)" style="mix-blend-mode:multiply;display:none"><path class="secondary"/><path fill="none" class="secondary"/></g></g><g clip-path="url(#r)" style="display:none"><path fill="none" class="primary" style="display:none"/><g style="display:none"><path class="secondary"/><path fill="none" class="primary"/></g><g mask="url(#s)" style="mix-blend-mode:multiply;display:none"><path class="secondary"/><path fill="none" class="secondary"/></g></g><g clip-path="url(#t)" style="display:block"><path fill="none" stroke="#121330" stroke-linecap="round" stroke-linejoin="round" stroke-width="7" d="M0 0" class="primary" style="display:block" transform="translate(215 215)"/><g style="display:block"><path fill="#4AB3FC" d="M104.996 218.488c-3.707-11.686-5.848-24.102-5.778-37.038.362-67.062 57.177-120.621 125.199-115.872 57.67 4.025 104.318 50.838 108.16 108.519 1.004 15.055-.981 29.503-5.072 42.974-19.092 62.852-112.485 155.075-112.485 155.075s-87-81.09-110.024-153.658zm166.003-36.103c.163-30.355-24.312-55.096-54.667-55.26-30.355-.164-55.096 24.311-55.26 54.666-.164 30.355 24.312 55.093 54.667 55.257 30.355.164 55.096-24.308 55.26-54.663z" class="secondary"/><path fill="none" stroke="#121330" stroke-linecap="round" stroke-linejoin="round" stroke-width="7" d="M104.996 218.488c-3.707-11.686-5.848-24.102-5.778-37.038.362-67.062 57.177-120.621 125.199-115.872 57.67 4.025 104.318 50.838 108.16 108.519 1.004 15.055-.981 29.503-5.072 42.974-19.092 62.852-112.485 155.075-112.485 155.075s-87-81.09-110.024-153.658zm166.003-36.103c.163-30.355-24.312-55.096-54.667-55.26-30.355-.164-55.096 24.311-55.26 54.666-.164 30.355 24.312 55.093 54.667 55.257 30.355.164 55.096-24.308 55.26-54.663z" class="primary"/></g><g opacity=".5" style="mix-blend-mode:multiply;display:block"><g mask="url(#u)" opacity="1"><path fill="#4AB3FC" d="M104.996 218.488c-3.707-11.686-5.848-24.102-5.778-37.038.362-67.062 57.177-120.621 125.199-115.872 57.67 4.025 104.318 50.838 108.16 108.519 1.004 15.055-.981 29.503-5.072 42.974-19.092 62.852-112.485 155.075-112.485 155.075s-87-81.09-110.024-153.658zm166.003-36.103c.163-30.355-24.312-55.096-54.667-55.26-30.355-.164-55.096 24.311-55.26 54.666-.164 30.355 24.312 55.093 54.667 55.257 30.355.164 55.096-24.308 55.26-54.663z" class="secondary"/><path fill="none" stroke="#4AB3FC" stroke-linecap="round" stroke-linejoin="round" stroke-width="3.5" d="M104.996 218.488c-3.707-11.686-5.848-24.102-5.778-37.038.362-67.062 57.177-120.621 125.199-115.872 57.67 4.025 104.318 50.838 108.16 108.519 1.004 15.055-.981 29.503-5.072 42.974-19.092 62.852-112.485 155.075-112.485 155.075s-87-81.09-110.024-153.658zm166.003-36.103c.163-30.355-24.312-55.096-54.667-55.26-30.355-.164-55.096 24.311-55.26 54.666-.164 30.355 24.312 55.093 54.667 55.257 30.355.164 55.096-24.308 55.26-54.663z" class="secondary"/></g></g></g><g clip-path="url(#v)" style="display:none"><g style="display:none"><path class="secondary"/><path fill="none" class="primary"/></g><g mask="url(#w)" style="mix-blend-mode:multiply;display:none"><path class="secondary"/><path fill="none" class="primary"/></g></g><g clip-path="url(#x)" style="display:none"><path fill="none" class="primary" style="display:none"/><g style="display:none"><path class="secondary"/><path fill="none" class="primary"/></g><g mask="url(#y)" style="mix-blend-mode:multiply;display:none"><path class="secondary"/><path fill="none" class="primary"/></g></g></g></svg>